<svg xmlns="http://www.w3.org/2000/svg" width="1000" viewBox="0 0 243.447 175.244"><path d="M243.347 24.425C243.347 11.003 232.444.1 219.022.1c-13.422 0-24.324 10.903-24.324 24.325 0 13.422-10.903 24.324-24.325 24.324-13.422 0-24.325-10.902-24.325-24.324C146.048 11.003 135.145.1 121.723.1 108.301.1 97.4 11.003 97.4 24.425c0 13.422-10.903 24.324-24.325 24.324-13.422 0-24.325-10.902-24.325-24.324C48.75 11.003 37.847.1 24.425.1 11.003.1.1 11.003.1 24.425c0 13.422 10.903 24.324 24.325 24.324 13.422 0 24.324-10.902 24.324-24.324C48.75 11.003 59.652.1 73.074.1 86.496.1 97.4 11.003 97.4 24.425c0 13.422 10.902 24.324 24.324 24.324 13.422 0 24.325-10.902 24.325-24.324C146.048 11.003 156.951.1 170.373.1c13.422 0 24.325 10.903 24.325 24.325 0 13.422 10.902 24.324 24.324 24.324 13.422 0 24.325-10.902 24.325-24.324" style="stroke-dasharray:765 767;stroke-dashoffset:766;animation:P0 7000ms linear 0ms infinite,Pfade 7000ms linear 0ms infinite"/><path d="M219.022 66.556c0-13.422-10.902-24.324-24.324-24.324-13.422 0-24.325 10.902-24.325 24.324 0 13.422-10.903 24.325-24.325 24.325-13.422 0-24.325-10.903-24.325-24.325 0-13.422-10.902-24.324-24.324-24.324-13.422 0-24.325 10.902-24.325 24.324 0 13.422-10.903 24.325-24.325 24.325-13.422 0-24.324-10.903-24.324-24.325 0-13.422 10.902-24.324 24.324-24.324 13.422 0 24.325 10.902 24.325 24.324 0 13.422 10.903 24.325 24.325 24.325 13.422 0 24.324-10.903 24.324-24.325 0-13.422 10.903-24.324 24.325-24.324 13.422 0 24.325 10.902 24.325 24.324 0 13.422 10.903 24.325 24.325 24.325 13.422 0 24.324-10.903 24.324-24.325" style="stroke-dasharray:612 614;stroke-dashoffset:613;animation:P1 7000ms linear 0ms infinite,Pfade 7000ms linear 0ms infinite"/><path d="M243.347 108.688c0-13.422-10.903-24.325-24.325-24.325-13.422 0-24.324 10.903-24.324 24.325 0 13.422-10.903 24.325-24.325 24.325-13.422 0-24.325-10.903-24.325-24.325 0-13.422-10.903-24.325-24.325-24.325-13.422 0-24.324 10.903-24.324 24.325 0 13.422-10.903 24.325-24.325 24.325-13.422 0-24.325-10.903-24.325-24.325 0-13.422-10.902-24.325-24.324-24.325C11.003 84.363.1 95.266.1 108.688c0 13.422 10.903 24.325 24.325 24.325 13.422 0 24.324-10.903 24.324-24.325 0-13.422 10.903-24.325 24.325-24.325 13.422 0 24.325 10.903 24.325 24.325 0 13.422 10.902 24.325 24.324 24.325 13.422 0 24.325-10.903 24.325-24.325 0-13.422 10.903-24.325 24.325-24.325 13.422 0 24.325 10.903 24.325 24.325 0 13.422 10.902 24.325 24.324 24.325 13.422 0 24.325-10.903 24.325-24.325" style="stroke-dasharray:765 767;stroke-dashoffset:766;animation:P2 7000ms linear 0ms infinite,Pfade 7000ms linear 0ms infinite"/><path d="M219.022 150.82c0-13.422-10.902-24.325-24.324-24.325-13.422 0-24.325 10.902-24.325 24.324 0 13.423-10.903 24.325-24.325 24.325-13.422 0-24.325-10.902-24.325-24.324 0-13.422-10.902-24.325-24.324-24.325-13.422 0-24.325 10.902-24.325 24.324 0 13.423-10.903 24.325-24.325 24.325-13.422 0-24.324-10.902-24.324-24.324 0-13.422 10.902-24.325 24.324-24.325 13.422 0 24.325 10.902 24.325 24.324 0 13.423 10.903 24.325 24.325 24.325 13.422 0 24.324-10.902 24.324-24.324 0-13.422 10.903-24.325 24.325-24.325 13.422 0 24.325 10.902 24.325 24.324 0 13.423 10.903 24.325 24.325 24.325 13.422 0 24.324-10.902 24.324-24.324" style="stroke-dasharray:612 614;stroke-dashoffset:613;animation:P3 7000ms linear 0ms infinite,Pfade 7000ms linear 0ms infinite"/><style>@keyframes Pdraw{to{stroke-dashoffset:0}}@keyframes Pfade{0%,85.71428571428572%{stroke-opacity:1}to{stroke-opacity:0}}@keyframes P0{0%{stroke-dashoffset:766}19.83839220967575%,to{stroke-dashoffset:0}}@keyframes P1{19.83839220967575%{stroke-dashoffset:613}35.714285714285715%,to{stroke-dashoffset:0}}@keyframes P2{35.714285714285715%{stroke-dashoffset:766}55.552677923961454%,to{stroke-dashoffset:0}}@keyframes P3{55.552677923961454%{stroke-dashoffset:613}71.42857142857143%,to{stroke-dashoffset:0}}path{stroke:#000;stroke-width:1;fill:none}</style></svg>